<svg xmlns="http://www.w3.org/2000/svg" width="100" height="100" viewBox="0 0 100 100">
  <g id="Group_40774" data-name="Group 40774" transform="translate(-477 -41)">
    <g id="eye-off" transform="translate(480.818 44.818)">
      <path id="Shape" d="M46.682,70.43a41.9,41.9,0,0,1-20.405-5.44A60.048,60.048,0,0,1,11.632,53.347,80.4,80.4,0,0,1-.4,36.58a3.959,3.959,0,0,1,.052-3.643A76.434,76.434,0,0,1,20.768,8.149a3.958,3.958,0,0,1,5.2.348l15.12,15.12a3.958,3.958,0,0,1-.1,5.695A7.917,7.917,0,1,0,52.176,40.5a3.958,3.958,0,0,1,5.7-.1L72.993,55.522a3.958,3.958,0,0,1-.4,5.948,43.506,43.506,0,0,1-25.849,8.96ZM7.666,34.814a74.742,74.742,0,0,0,9.742,13.119A52.179,52.179,0,0,0,30.1,58.058,34.089,34.089,0,0,0,46.65,62.513a35.6,35.6,0,0,0,17.339-4.8l-9.2-9.2A15.833,15.833,0,0,1,32.969,26.693L22.879,16.6A68.417,68.417,0,0,0,7.666,34.814ZM81.673,51.391a3.959,3.959,0,0,1-2.8-1.157l0,0L35.569,6.887a3.958,3.958,0,0,1,1.9-6.652A40.364,40.364,0,0,1,46.625-.818h.06a41.9,41.9,0,0,1,20.4,5.441A60.051,60.051,0,0,1,81.732,16.267,80.277,80.277,0,0,1,93.764,33.038a3.958,3.958,0,0,1-.05,3.637,77.432,77.432,0,0,1-9.01,13.3,3.964,3.964,0,0,1-2.861,1.408Q81.758,51.391,81.673,51.391ZM46.972,7.1,81.326,41.488A69.605,69.605,0,0,0,85.7,34.8a74.72,74.72,0,0,0-9.744-13.123A52.18,52.18,0,0,0,63.263,11.554,34.139,34.139,0,0,0,46.972,7.1Z" transform="translate(0 11.875)" fill="#8d8d8c"/>
      <path id="Path" d="M90.223,94.182a3.946,3.946,0,0,1-2.8-1.159L.341,5.939a3.958,3.958,0,0,1,5.6-5.6L93.022,87.425a3.958,3.958,0,0,1-2.8,6.757Z" transform="translate(0 0)" fill="#8d8d8c"/>
    </g>
    <rect id="Rectangle_17407" data-name="Rectangle 17407" width="100" height="100" transform="translate(477 41)" fill="none"/>
  </g>
</svg>
