<svg xmlns="http://www.w3.org/2000/svg" xmlns:xlink="http://www.w3.org/1999/xlink" width="39.833" height="39.833" viewBox="0 0 39.833 39.833">
  <defs>
    <linearGradient id="linear-gradient" x1="-25.709" y1="1.952" x2="-25.678" y2="1.952" gradientUnits="objectBoundingBox">
      <stop offset="0" stop-color="#395893"/>
      <stop offset="0.167" stop-color="#397798"/>
      <stop offset="0.552" stop-color="#395893"/>
      <stop offset="1" stop-color="#395893"/>
    </linearGradient>
  </defs>
  <g id="facebook" transform="translate(-1142.817 -698.127)">
    <rect id="Rectangle_111" data-name="Rectangle 111" width="39.833" height="39.833" rx="19.917" transform="translate(1142.817 698.127)" fill="url(#linear-gradient)"/>
    <path id="Path_75" data-name="Path 75" d="M859.907,37.789c0,1.515,0,3.03,0,4.546,0,.164-.041.2-.2.2q-1.709-.011-3.419,0c-.151,0-.195-.034-.195-.191q0-2.624-.006-5.247c-.005-1.268-.015-2.537-.012-3.8,0-.173-.058-.2-.211-.2-.536.009-1.072,0-1.608.006-.118,0-.159-.028-.158-.155q.007-1.477,0-2.955c0-.116.036-.145.147-.144.528,0,1.059,0,1.588,0,.234,0,.235,0,.233-.242-.007-.862,0-1.725.035-2.587a3.538,3.538,0,0,1,.6-1.966,3.12,3.12,0,0,1,2-1.22,6.408,6.408,0,0,1,1.336-.152q1.313.007,2.624,0c.119,0,.174.022.175.156q0,1.525.023,3.049c0,.125-.064.122-.151.121h-1.774a2.888,2.888,0,0,0-.459.033.517.517,0,0,0-.5.516,12.843,12.843,0,0,0-.039,1.384c-.006.223,0,.443-.007.665,0,.243,0,.243.233.243.837,0,1.675,0,2.512,0,.153,0,.192.023.173.194-.071.6-.116,1.214-.17,1.82-.028.313-.064.624-.083.937-.011.178-.089.241-.264.239-.721,0-1.442.006-2.162.009-.237,0-.237,0-.237.24v4.507Z" transform="translate(304.717 685.447)" fill="#fff"/>
  </g>
</svg>
