<svg xmlns="http://www.w3.org/2000/svg" xmlns:xlink="http://www.w3.org/1999/xlink" width="39.601" height="39.612" viewBox="0 0 39.601 39.612">
  <defs>
    <radialGradient id="radial-gradient" cx="0.717" cy="0.504" r="0.653" gradientTransform="translate(0.005)" gradientUnits="objectBoundingBox">
      <stop offset="0" stop-color="#f0e8c7"/>
      <stop offset="0.742" stop-color="#17a84d"/>
      <stop offset="1" stop-color="#0c944b"/>
    </radialGradient>
    <clipPath id="clip-path">
      <rect id="Rectangle_18467" data-name="Rectangle 18467" width="39.601" height="39.612" rx="19.8" transform="translate(962.021 698.593)" fill="url(#radial-gradient)"/>
    </clipPath>
  </defs>
  <g id="bok" transform="translate(-962.021 -698.593)">
    <rect id="Rectangle_118" data-name="Rectangle 118" width="39.601" height="39.612" rx="19.8" transform="translate(962.021 698.593)" fill="url(#radial-gradient)"/>
    <g id="Group_41862" data-name="Group 41862">
      <g id="Mask_Group_182" data-name="Mask Group 182" clip-path="url(#clip-path)">
        <path id="Path_77" data-name="Path 77" d="M570.967,64.633,542.748,36.407,570.967,8.19l.779.775L544.3,36.407l27.441,27.452Zm2.935,0-28.22-28.226L573.9,8.19l.778.775L547.237,36.407l27.442,27.452Zm2.936,0L548.615,36.407,576.837,8.19l.779.775L550.172,36.407l27.445,27.452Zm2.936,0L551.551,36.407,579.773,8.19l.778.775L553.1,36.407l27.447,27.452Z" transform="translate(423.055 681.928)" fill="#ffd300"/>
      </g>
    </g>
  </g>
</svg>
