<svg xmlns="http://www.w3.org/2000/svg" xmlns:xlink="http://www.w3.org/1999/xlink" width="39.833" height="39.832" viewBox="0 0 39.833 39.832">
  <defs>
    <linearGradient id="linear-gradient" x1="-22.693" y1="1.952" x2="-22.662" y2="1.952" gradientUnits="objectBoundingBox">
      <stop offset="0" stop-color="#0074ab"/>
      <stop offset="0.167" stop-color="#00a4ab"/>
      <stop offset="0.552" stop-color="#0074ab"/>
      <stop offset="1" stop-color="#0074ab"/>
    </linearGradient>
  </defs>
  <g id="linkidin" transform="translate(-1022.817 -698.127)">
    <rect id="Rectangle_99" data-name="Rectangle 99" width="39.833" height="39.832" rx="19.916" transform="translate(1022.817 698.127)" fill="url(#linear-gradient)"/>
    <g id="Group_41861" data-name="Group 41861" transform="translate(-0.038 0.486)">
      <path id="Path_67" data-name="Path 67" d="M760.617,30.527a8.521,8.521,0,0,1,.917-.993,4.129,4.129,0,0,1,3.2-.807,4.454,4.454,0,0,1,1.371.336,4.336,4.336,0,0,1,2.432,3.369,8.263,8.263,0,0,1,.128,1.545c.029,2.126.007,4.254.018,6.38,0,.3-.062.426-.4.421-1.064-.022-2.126-.018-3.19,0-.291,0-.372-.095-.372-.377.009-2.094,0-4.183,0-6.276a3.535,3.535,0,0,0-.241-1.179,1.95,1.95,0,0,0-3.286-.458,2.43,2.43,0,0,0-.583,1.687c.023,2.057,0,4.114.016,6.17,0,.329-.082.441-.422.435q-1.559-.031-3.12,0c-.344.006-.42-.111-.419-.436q.016-5.527,0-11.059c0-.237.064-.327.312-.324q1.663.015,3.329,0c.25,0,.319.095.312.327-.013.377,0,.756,0,1.242" transform="translate(283.512 686.379)" fill="#fff" fill-rule="evenodd"/>
      <path id="Path_68" data-name="Path 68" d="M755.608,34.856c0,1.826-.007,3.652.006,5.476,0,.3-.073.4-.385.4-1.075-.021-2.148-.015-3.224,0-.267,0-.358-.073-.357-.353q.013-5.559,0-11.123c0-.253.068-.344.332-.342,1.1.011,2.194.015,3.291,0,.3,0,.341.119.34.371-.007,1.859,0,3.718,0,5.578" transform="translate(282.423 686.427)" fill="#fff" fill-rule="evenodd"/>
      <path id="Path_69" data-name="Path 69" d="M755.855,26.3a1.989,1.989,0,0,1-2.207,2.039,2.059,2.059,0,1,1,.044-4.108,1.965,1.965,0,0,1,2.163,2.069" transform="translate(282.384 685.411)" fill="#fff" fill-rule="evenodd"/>
    </g>
  </g>
</svg>
