<svg xmlns="http://www.w3.org/2000/svg" width="1994" height="462" viewBox="0 0 1994 462">
  <g id="iBOK" transform="translate(-12980 -19303)">
    <rect id="Main_Logo_IBOK_For_Website_" data-name="Main Logo IBOK For Website " width="1994" height="462" transform="translate(12980 19303)" fill="none"/>
    <path id="Union_113" data-name="Union 113" d="M456.2,332.486c.071-4.515.063-9.032,0-13.549-.014-1.177.38-1.524,1.521-1.512q7.439.07,14.876-.005c1.229-.014,1.477.478,1.465,1.584q-.073,6.774,0,13.549c.014,1.163-.37,1.55-1.53,1.517-2.512-.071-5.028-.022-7.546-.02-2.368,0-4.739-.053-7.1.021q-.1,0-.19,0C456.627,334.073,456.176,333.739,456.2,332.486Zm-10.768,1.585c-2.51-.075-5.026-.024-7.54-.023-2.365,0-4.733-.049-7.1.022-1.189.037-1.717-.242-1.7-1.576.073-4.511.061-9.024,0-13.536-.015-1.177.4-1.537,1.53-1.528,4.953.037,9.906.048,14.859-.008,1.229-.014,1.467.5,1.456,1.588q-.07,6.768,0,13.535c.014,1.106-.32,1.529-1.391,1.529Zm-22.5-37.38c-12.773-7.882-20.832-19.076-23.019-34.159a18.987,18.987,0,0,1-.07-2.21c-.055-6.962-.095-13.924-.176-20.887-.012-1.06.386-1.417,1.428-1.411,5.629.031,11.256.044,16.886-.006,1.292-.013,1.42.638,1.406,1.656-.035,2.667-.017,5.333-.011,8a124.611,124.611,0,0,0,.336,12.635c-3.64.247-7.279.423-10.918.423,3.64,0,7.28-.176,10.92-.423.351,1.267.742,2.526,1.053,3.805a24.755,24.755,0,0,0,12.213,16.462c12.115,6.715,24.5,6.792,36.557-.106,8.008-4.586,11.914-12.046,12.936-21.124.175-1.553-.254-2.039-1.853-2.032-10.214.046-20.427,0-30.641-.023-1.035,0-2.07-.042-3.1-.065a2.064,2.064,0,0,1,.808-.534,2.062,2.062,0,0,0-.809.535c-.944.533-1.384.2-1.408-.828C445,237.074,455.269,216,476.635,210.188c6.3-1.712,12.723-1.666,19.165-1.429,1.25-.411,1.719-.006,1.707,1.346-.054,5.474-.042,10.949-.006,16.421.006,1.07-.205,1.683-1.448,1.608-1.691-.1-3.391-.094-5.089-.133h0c-2.542.408-5.137.032-7.683.67-5.62,1.407-9.985,4.507-13.693,9.928h12.893c4.025-.243,8.054-.209,12.082-.175,2.412.02,4.824.04,7.235,0,.7-.011,1.113.2,1.091.993-.282,10.472,1.323,21.146-2.356,31.29-6.7,18.472-20.18,29.238-39.3,32.6a63.842,63.842,0,0,1-11.055,1A50.975,50.975,0,0,1,422.931,296.691Zm-20.712-36.171q-1.188-.081-2.377-.2Q401.03,260.44,402.219,260.521Zm72.975-15.328q-2,1.42-4.092,2.641,2.089-1.225,4.094-2.642c2.67-1.894,5.651-3.521,7.285-6.593C480.846,241.671,477.865,243.3,475.194,245.192ZM358.224,304.224c-4.954-.077-9.91-.051-14.865-.013-1.024.008-1.437-.271-1.427-1.368.049-4.66.063-9.323-.007-13.984-.019-1.255.49-1.455,1.567-1.428,2.515.06,5.03.02,7.544.02,2.367,0,4.736.059,7.1-.025,1.206-.043,1.681.246,1.659,1.568-.08,4.513-.063,9.027-.01,13.54.016,1.158-.2,1.691-1.486,1.691Zm-175.471-1.776q.086-6.556,0-13.114c-.017-1.192.37-1.528,1.52-1.479a17.988,17.988,0,0,0,7.821-1.287,10.319,10.319,0,0,0,6.17-6.931,79.806,79.806,0,0,1-11.354.674c-21.674-.005-35.938-16.328-33.062-37.86,1.828-13.693,10.61-23.4,23.944-26.456,13.786-3.163,27.373,1.856,34.621,12.813a33.675,33.675,0,0,1,5.486,18.017q.17,6.106,0,12.224c-.049,1.652.379,2.107,2.068,2.1,13.7-.073,27.4-.041,41.106-.041,21.921,0,43.845-.159,65.765.1,6.745.078,11.8-1.42,13.7-8.566a180.267,180.267,0,0,0,20.032,3.682c.176,10.8-9.291,21.831-20.167,23.553a46.5,46.5,0,0,1-7.3.451q-56.66-.007-113.315-.038c-1.59,0-2.2.363-2.56,2.038-2.643,12.332-10.757,19.467-23.681,21.1a84.591,84.591,0,0,1-9.3.552h-.075C183.022,303.977,182.737,303.565,182.753,302.449Zm-8.515-59.378a19.044,19.044,0,0,0-.243,5.738c.623,6.873,4.988,11.7,11.312,12.182,2.432.187,4.88.161,7.328.136,1.326-.014,2.651-.029,3.975-.008,1.012.015,1.256-.444,1.241-1.342-.033-2.292-.01-4.586-.01-7.287a62.11,62.11,0,0,0-.328-8.67c-1.016-6.26-5.657-10.465-11.77-10.6-.1,0-.2,0-.306,0C179.632,233.219,175.58,236.8,174.238,243.07ZM535.8,280.359c-5.4-.118-10.814-.086-16.218-.013-1.347.016-1.765-.352-1.762-1.735q.053-44.568,0-89.135c0-1.346.373-1.779,1.744-1.76,5.405.07,10.811.1,16.217-.012,1.741-.037,2.221.435,2.213,2.2-.073,14.745-.041,29.489-.041,44.234,0,14.672-.03,29.343.041,44.013.008,1.684-.407,2.211-2.02,2.211ZM79.28,280.328q-8.786-.018-17.572-.015a82.036,82.036,0,0,1-15.681-1.347c-10.663-2.057-20.057-6.281-26.146-15.857-4.051-6.371-5.564-13.507-5.7-20.939-.149-8.445-.07-16.893-.137-25.339-.008-1.143.324-1.546,1.5-1.535,5.628.051,11.258.068,16.885-.009,1.4-.02,1.514.578,1.508,1.709-.038,7.558,0,15.115-.029,22.674a30.253,30.253,0,0,0,.64,6.62c1.816,8.249,6.979,12.706,16.223,13.964a61.723,61.723,0,0,0,7.953.722c15.845.088,31.7.527,47.533-.25,7.16-.352,11.1-4.3,11.658-11.445.127-1.623.157-3.255.157-4.884.011-18.005.034-36.012-.032-54.018-.008-1.921.323-2.69,2.486-2.613,5.03.183,10.073.143,15.106.014,1.8-.046,2.358.348,2.342,2.26-.1,11.412-.05,22.822-.05,34.234q0,16.228,0,32.455a26.55,26.55,0,0,1-2.018,10.836c-4.031,9.185-11.75,12.586-21.108,12.684q-10.879.115-21.761.1Q86.164,280.345,79.28,280.328Zm261.251-27.695c1-11.532.283-23.088.409-34.63.023-2.092.442-2.777,2.645-2.7,5.1.181,10.213.067,15.322.051,1.012,0,1.848-.086,1.837,1.423-.1,13.179-.13,26.359-.18,39.539A179.832,179.832,0,0,1,340.531,252.634ZM92.444,229.419q-16.886-.063-33.773,0c-1.269,0-1.894-.2-1.825-1.675.117-2.513.114-5.04,0-7.554-.064-1.445.49-1.753,1.8-1.686,1.991.1,3.989.027,6.3.027a18.34,18.34,0,0,1,.168-11.771c2.158-6.095,7.4-9.908,14.211-10.23,6.351-.3,10.908,2.556,13.852,8.155.591,1.124.67,1.731-.706,2.29-2.255.918-4.437,2.022-6.61,3.131-.91.464-1.312.412-1.858-.582-1.5-2.74-3.128-3.527-5.528-2.991-2.1.467-3.233,2.067-3.439,5.086a13.125,13.125,0,0,0,.218,3.308c.469,2.471,1.795,3.515,4.3,3.52,4.222.009,8.445.062,12.664-.03,1.489-.032,2.116.293,2.023,1.925-.138,2.439-.109,4.892-.007,7.333.058,1.393-.459,1.743-1.766,1.743Zm165.034-62.646c-22.725-10.717-36.749-28.625-42.159-53.032-4.631-20.888-2.8-41.34,6.635-60.713,8.093-16.621,20.965-28.422,37.963-35.676a88.84,88.84,0,0,1,28.517-6.672c16.116-1.207,31.69.72,46.484,7.492A71.819,71.819,0,0,1,370.465,53c7.016,14.374,9.272,29.714,8.329,45.5-1,16.738-6.056,32.154-16.5,45.546-10.519,13.484-24.265,22.1-40.526,26.912-8.694,2.569-17.6,3.753-29.035,3.732q-.361,0-.725,0A82.691,82.691,0,0,1,257.478,166.773ZM291.285,35.695c-20.6,1.77-35.462,11.956-44.068,30.76-6.074,13.27-6.6,27.213-3.365,41.294,5.945,25.867,26.02,41.953,52.611,41.934,2.353-.142,5.231-.137,8.1-.566,15.473-2.313,27.7-9.851,35.986-23.111,9.546-15.27,11.59-31.975,7.661-49.366-3.3-14.616-11.268-26.162-24.277-33.865a52.493,52.493,0,0,0-27.227-7.316Q294.02,35.458,291.285,35.695Zm208.98,132.578q-32.027-36.64-64.232-73.129c-.682-.773-1.279-1.665-2.462-1.717-.809.806-.435,1.828-.435,2.745q-.032,36,.026,72c.006,2.074-.443,2.811-2.661,2.769-7.625-.139-15.251-.077-22.876-.031-1.414.008-2.147-.224-2.146-1.914q.07-51.22.049-102.44a4.2,4.2,0,0,1,.1-.654h0c-.068-1.032-.2-2.064-.2-3.1-.014-15.413.016-30.826-.047-46.239-.008-1.742.269-2.421,2.238-2.389,7.848.125,15.7.108,23.552.007,1.718-.022,2.05.506,2.046,2.115q-.081,30.9-.014,61.8c0,.75-.5,1.8.414,2.227,1.046.493,1.551-.6,2.136-1.2q30.945-31.6,61.844-63.24a5.1,5.1,0,0,1,4.046-1.7c11.551.069,23.1.037,34.707.037-.039,1.059-.883,1.408-1.413,1.933q-34.7,34.287-69.472,68.5c-1.539,1.512-1.453,2.231-.036,3.757q37.282,40.138,74.44,80.393c.53.574,1.037,1.171,1.836,2.074h-2.538c-10.961,0-21.925-.077-32.884.058h-.159A7,7,0,0,1,500.265,168.273ZM42.909,170.931c-7.554-.105-15.109-.059-22.664-.029-1.156,0-1.9,0-1.895-1.585.053-21.119.258-42.1.27-63.224v-1.2h0c.02-12.438.094-24.879.009-37.317-.014-2.147.566-2.738,2.706-2.7,7.251.133,14.506.079,21.759.027,1.377-.01,1.95.294,1.948,1.827Q44.97,94.059,45,121.38a9.073,9.073,0,0,1-.131,1.1h0c.061.809.173,1.619.174,2.429.012,14.6-.019,29.2.047,43.795.008,1.673-.372,2.23-2.061,2.23Zm34.951-1.623c.071-8.361.065-16.726.084-25.088q.2.056.4.12-.2-.064-.4-.12Q77.933,80.311,77.9,16.4c0-1.564.26-2.161,2.021-2.155,7.477.027,14.955.013,22.433,0,13.334-.025,26.669-.05,40,.158,11.185.175,21.807,3.057,30.86,10.085,8.24,6.4,12.5,14.979,13.241,25.347.549,7.69-.5,15.011-4.639,21.731-4.642,7.546-11.485,12.18-19.571,15.262-.619.236-1.248.45-1.86.7-.114.046-.176.222-.356.469.965.931,2.284.735,3.4.964,15.689,3.217,27.67,15.7,29.589,31.469,2.5,20.506-6.577,37.54-27.186,45.2a82.871,82.871,0,0,1-24.86,4.9c-5.324.271-10.643.482-15.972.291-.795-.524-1.553-1.116-2.39-1.562-12.495-6.655-24.793-13.651-36.957-20.891-.338-.2-.672-.408-1.005-.619.333.211.668.419,1.005.62,12.164,7.24,24.463,14.238,36.958,20.891.836.446,1.6,1.039,2.39,1.562q-22.749.031-45.5.085h-.026C78.262,170.908,77.848,170.588,77.86,169.308Zm27.653-65.589c.078,6.893.034,13.785.034,20.678,0,6.746.068,13.491-.043,20.233-.033,1.957.38,2.661,2.517,2.619,3.61-.073,7.222-.059,10.835-.046,3.721.014,7.444.029,11.164-.051a97.416,97.416,0,0,0,15.673-1.2c13.628-2.516,20.508-10.417,20.151-23.331-.267-9.643-4.747-15.63-13.884-18.651-5.4-1.786-11.021-2.191-16.621-2.312-5.361-.117-10.725-.1-16.089-.093-3.9.008-7.794.017-11.688-.023h-.077C105.793,101.541,105.5,102.162,105.513,103.719Zm.02-64.034c.061,6.146.027,12.292.027,18.439,0,6,.025,12-.023,17.995-.009,1.256.22,1.855,1.684,1.843,3.579-.03,7.16-.025,10.741-.022,5.524.007,11.048.013,16.57-.1a32.508,32.508,0,0,0,14.932-3.715c6.38-3.445,9.64-8.889,9.6-16.077-.041-7.55-3.068-13.451-10.27-16.716A35.881,35.881,0,0,0,137.245,38.4a180.669,180.669,0,0,0-18.949-.468c-3.668.038-7.337.076-11-.016l-.142,0C105.89,37.913,105.52,38.381,105.533,39.685Z" transform="translate(13043.848 19360.73)" fill="#fff"/>
    <path id="Union_117" data-name="Union 117" d="M586.984,94.333a29.658,29.658,0,0,1-8.752-1.384c-1.956-.6-3.128-1.664-3.481-3.146a6.775,6.775,0,0,1,.34-3.444c.066-.23.127-.447.179-.655a4.624,4.624,0,0,1,1.187-2.3,2.956,2.956,0,0,1,2.115-.815,7.305,7.305,0,0,1,1.685.259c.149.035.292.068.435.1a34.144,34.144,0,0,0,5.077.657c.424.026.841.04,1.239.04,5.9,0,9.123-2.826,10.127-8.893a72.441,72.441,0,0,0,.5-13.748c-.056-2.105-.114-4.28-.087-6.431l0-.383c.11-8.8.222-17.891-.074-26.807a4.926,4.926,0,0,1,1.083-3.743,4.041,4.041,0,0,1,3.02-1.056c.348,0,.7.019,1.039.037.232.013.453.024.671.031l.167,0c.266,0,.547-.014.844-.029h.026c.32-.016.651-.033.983-.033a4.1,4.1,0,0,1,3.057,1.068,5.037,5.037,0,0,1,1.125,3.811c-.152,5.7-.132,11.5-.112,17.117.015,4.276.031,8.7-.03,13.051-.019,1.384.158,1.773.265,1.881a1.949,1.949,0,0,0,1.165.221c.126,0,.262,0,.4-.011,2.7-.134,5.183-.2,7.594-.2,2.485,0,4.9.073,7.178.217.182.012.355.018.515.018.913,0,1.166-.186,1.222-.243a3.979,3.979,0,0,0,.289-2.158c-.061-4.145-.042-8.354-.025-12.424.025-5.658.05-11.508-.138-17.24a5.147,5.147,0,0,1,1.134-3.961A4.647,4.647,0,0,1,632.42,22.6c.237,0,.478.005.711.01h.013c.227.005.483.011.729.011s.524-.008.784-.015c.275-.008.56-.016.841-.016a4.344,4.344,0,0,1,3.431,1.18,4.973,4.973,0,0,1,.913,3.992,67.976,67.976,0,0,0-.159,8,31.591,31.591,0,0,1,8.879-9.6,25.368,25.368,0,0,1,14.327-4.9,18.66,18.66,0,0,1,7.246,1.427,18.12,18.12,0,0,1,6.035,4.129c3.612,3.72,5.773,8.95,6.251,15.124a115.181,115.181,0,0,1-.089,14.444q-.043.891-.085,1.78a2.965,2.965,0,0,0,.134,1.492,1.2,1.2,0,0,0,.481.066,4.484,4.484,0,0,0,.563-.041,8.5,8.5,0,0,1,1.064-.059c.285,0,.563.01.831.019s.493.017.727.017h.067c5.087,0,7.6-.535,8.968-1.905s1.944-3.946,2.035-9.159c.124-7.142,1.687-13.032,4.645-17.506a19.888,19.888,0,0,1,5.6-5.657,21.173,21.173,0,0,1,7.662-3.077,40.394,40.394,0,0,1,7.741-.81c6.244,0,11.232,1.794,14.824,5.333,3.857,3.8,5.965,9.516,6.267,16.986a130.206,130.206,0,0,1-.044,13.786c-.092,1.367.148,1.736.222,1.816s.365.268,1.411.268c.2,0,.407-.005.645-.019,2.489-.128,4.745-.19,6.9-.19,2.271,0,4.371.068,6.422.209.218.014.425.023.613.023a2.18,2.18,0,0,0,1.377-.3,3.905,3.905,0,0,0,.383-2.3c-.068-7.876-.064-15.881-.059-23.621,0-8.691.01-17.68-.088-26.515-.02-1.786.118-3.613,1.247-4.887C764.132.734,766.107.516,767.873.487l.231,0a5.553,5.553,0,0,1,4.169,1.33c1.267,1.274,1.256,3.029,1.245,4.885,0,.119,0,.239,0,.361-.069,20.292-.113,38.584.051,56.942.012,1.551-.132,3.291-1.289,4.457a5.856,5.856,0,0,1-4.309,1.3l-.222,0c-7.594-.086-15.223-.1-21.021-.1-2.821,0-5.688,0-8.461.005h-.172c-2.869,0-5.836.006-8.757.006-3.295,0-6.177,0-8.81-.013a29.659,29.659,0,0,1-10.084-1.5,19.35,19.35,0,0,1-7.493-4.833,13.344,13.344,0,0,1-6.686,5.178,28.373,28.373,0,0,1-9.72,1.23l-.859,0c-10.112-.059-20.253-.067-29.705-.067l-13.65,0c-9.288,0-19.253-.007-29.2-.065h-.354a5.331,5.331,0,0,0-2.757.418c-.459.346-.751,1.271-.892,2.826-.58,6.451-3.019,11.89-7.051,15.727a20.381,20.381,0,0,1-6.813,4.284A23.113,23.113,0,0,1,586.984,94.333Zm72.553-62.554a14.843,14.843,0,0,0-8.175,4.081,33.552,33.552,0,0,0-7.458,10.6,58.566,58.566,0,0,0-3.925,12.595,3.831,3.831,0,0,0-.088.614,4.038,4.038,0,0,0,.553.032l.185,0c1.749-.041,3.635-.061,5.935-.061,1.414,0,2.849.007,4.237.014,1.3.007,2.648.014,3.971.014l6.687,0c2.8,0,4.936,0,6.924-.015h.034c.224,0,.443.009.654.018h.005c.19.008.369.016.534.016a2.16,2.16,0,0,0,.4-.027,1.632,1.632,0,0,0,.055-.4c.058-1.306.138-2.628.216-3.906.376-6.168.731-11.993-1.18-17.721-1.371-4.1-3.767-6.016-7.541-6.016A13.478,13.478,0,0,0,659.536,31.779Zm53.052,3.509a17.564,17.564,0,0,0-3.659,8.788,19.486,19.486,0,0,0,1.454,9.454,8.338,8.338,0,0,0,5.006,5.023,23.491,23.491,0,0,0,7.819,1.094c1.031.017,2.1.034,3.01.034,3.371,0,4.672-.257,5.153-1.022.684-1.084.687-3.84.687-8.011-.068-1.144-.061-2.3-.053-3.533a31.306,31.306,0,0,0-.525-7.25,11.816,11.816,0,0,0-2.465-5.236,8.38,8.38,0,0,0-4.734-2.644,18.2,18.2,0,0,0-3.758-.428h0A9.345,9.345,0,0,0,712.589,35.288Zm-419.731,57.7a4.246,4.246,0,0,1-3.206-2.676,5.8,5.8,0,0,1,.089-3.026,6.24,6.24,0,0,0,.188-1.216,3.7,3.7,0,0,1,.91-2.77,2.805,2.805,0,0,1,2.065-.8,7.71,7.71,0,0,1,2.306.467,10.667,10.667,0,0,0,2.218.358c.279.027.567.054.855.087a24.922,24.922,0,0,0,2.909.183c3.578,0,6.169-.921,7.924-2.813,1.777-1.919,2.76-4.974,2.922-9.083.107-2.741.08-5.55.053-8.267-.013-1.257-.025-2.558-.024-3.839,0-2.841,0-5.729.007-8.522.01-7.253.021-14.754-.037-22.125q0-.24-.005-.475c-.023-1.726-.048-3.511,1.183-4.758a5.053,5.053,0,0,1,3.778-1.253c.222,0,.457.007.7.02,2.16.123,3.625.375,4.73,1.3,1.513,1.268,1.642,3.35,1.584,5.022-.182,5.273-.156,10.657-.131,15.862.02,4.2.04,8.547-.047,12.827-.029,1.446.175,1.875.3,2,.076.077.358.257,1.338.257.166,0,.346-.005.538-.016,2.647-.14,5.255-.212,7.755-.212,2.556,0,5.08.075,7.5.221.188.012.365.017.528.017.937,0,1.192-.185,1.246-.241.143-.146.309-.629.284-2.106-.074-4.355-.059-8.776-.043-13.052.019-5.292.038-10.764-.112-16.128-.04-1.436.063-3.237,1.228-4.436a5.311,5.311,0,0,1,3.949-1.269c.24,0,.492.005.77.017l.343.014a7.413,7.413,0,0,1,3.979.859c1.669,1.122,1.8,3.2,1.754,4.665-.175,5.6-.152,11.315-.129,16.842.017,4.2.035,8.544-.034,12.821-.021,1.291.18,1.635.267,1.724.059.059.335.255,1.421.255.091,0,.187,0,.286,0,2.717-.073,5.57-.105,9.253-.105,2.012,0,4.027.01,6.159.02l2.822.012c-5.41-5.328-7.411-11.518-6.114-18.819a22.828,22.828,0,0,1,3.2-8.225,24.907,24.907,0,0,1,5.8-6.36,26.577,26.577,0,0,1,7.543-4.107,25.562,25.562,0,0,1,8.477-1.464,23.029,23.029,0,0,1,10.506,2.475,3.678,3.678,0,0,1,2.3,3.451c.087,2.5-.317,4.067-1.31,5.094a4.2,4.2,0,0,1-3.155,1.181,11.462,11.462,0,0,1-2.622-.362,31.356,31.356,0,0,0-5.465-.913c-.383-.02-.766-.029-1.136-.029-6.34,0-10.372,2.78-11.983,8.263-1.967,6.682.416,12.913,6.221,16.262a25.227,25.227,0,0,0,7.841,2.883,42.644,42.644,0,0,0,8.418.717c1.243,0,2.57-.032,4.179-.1.194-.008.38-.013.554-.013a4.8,4.8,0,0,1,3.776,1.358,6.124,6.124,0,0,1,1.117,3.9,4.923,4.923,0,0,1-1.112,3.733,4.772,4.772,0,0,1-3.568,1.131c-.2,0-.4,0-.6-.005-.178,0-.364-.005-.544-.006-7.168-.012-14.845-.016-24.889-.016l-24.761,0c-2.86,0-5.769.009-8.581.016s-5.725.017-8.588.017c-5.494,0-9.946-.032-14.011-.1-.151,0-.286,0-.414,0a3.832,3.832,0,0,0-1.981.331c-.21.188-.485.743-.607,2.315-.511,6.639-2.906,12.216-6.925,16.124a21.457,21.457,0,0,1-15.332,5.888A31.213,31.213,0,0,1,292.857,92.991ZM89.789,93.08C87.917,92.792,86.7,92,86.181,90.728a5.868,5.868,0,0,1-.131-3.15,9.012,9.012,0,0,0,.123-1.152,4.472,4.472,0,0,1,.787-2.782,2.957,2.957,0,0,1,2.447-1.109,7.592,7.592,0,0,1,2.219.409,20.253,20.253,0,0,0,4.59.632l.359.022c.426.027.847.04,1.25.04,5.9,0,9.124-2.823,10.135-8.886a72.464,72.464,0,0,0,.5-13.745c-.057-2.108-.114-4.287-.087-6.44l0-.1c.11-8.893.223-18.088-.068-27.1a4.9,4.9,0,0,1,1.077-3.723,3.993,3.993,0,0,1,3.026-1.054c.326,0,.653.016.97.031.257.013.5.024.738.028.314,0,.649-.013.973-.028h.013c.32-.015.65-.031.98-.031a4.109,4.109,0,0,1,3.108,1.079,5.062,5.062,0,0,1,1.129,3.83c-.152,5.669-.131,11.448-.112,17.038.014,4.306.031,8.759-.032,13.142-.02,1.381.183,1.737.27,1.827.055.055.305.235,1.252.235.116,0,.24,0,.369-.009,2.61-.114,5.254-.173,7.855-.173h.01c2.618,0,5.26.059,7.853.175.135.005.264.009.383.009a2.042,2.042,0,0,0,1.213-.227c.086-.087.284-.441.263-1.833-.064-4.374-.051-8.815-.039-13.109.016-5.44.033-11.065-.109-16.585a5.835,5.835,0,0,1,1.206-4.256,4.628,4.628,0,0,1,3.435-1.182c.344,0,.714.018,1.133.053.372.031.772.035,1.16.04,1.342.014,2.863.031,3.966,1.187a5.273,5.273,0,0,1,1.129,4.037c-.191,5.429-.163,10.97-.136,16.33.022,4.375.045,8.9-.05,13.356-.032,1.464.2,1.867.306,1.971.067.069.314.229,1.153.229.219,0,.469-.012.743-.034,1.105-.09,2.317-.134,3.7-.134,1.185,0,2.382.032,3.539.062,1.141.03,2.319.061,3.474.061a35.492,35.492,0,0,0,5.279-.331c.022-1.3.047-2.6.071-3.865.072-3.884.147-7.9.183-11.848.01-1.218.027-2.455.043-3.651.057-4.214.115-8.572-.1-12.817a4.679,4.679,0,0,1,1-3.618,3.732,3.732,0,0,1,2.772-1.02c.407,0,.8.033,1.19.066.326.027.661.055.952.055h.042c.274,0,.571-.024.887-.048.373-.028.759-.056,1.149-.056a3.842,3.842,0,0,1,2.862,1.02A4.812,4.812,0,0,1,181.7,27.2c-.171,11.366-.174,23.426-.009,37.956a4.718,4.718,0,0,1-1.087,3.457,4.964,4.964,0,0,1-3.719,1.1h-.252c-3.928-.035-8.129-.05-13.623-.05-2.275,0-4.588,0-6.826.005s-4.553,0-6.83,0c-2.462,0-4.964,0-7.384.009s-4.925.008-7.386.008c-4.926,0-8.907-.018-12.528-.058h-.166c-1.047,0-1.345.12-1.43.19-.026.022-.258.25-.318,1.47a31.171,31.171,0,0,1-2.209,10.662,18.5,18.5,0,0,1-5.076,7.014,19.123,19.123,0,0,1-7.132,3.7,30.206,30.206,0,0,1-8.255,1.049A51.188,51.188,0,0,1,89.789,93.08Zm127.6.231c-1.006-.048-2.09-.07-3.41-.07-.889,0-1.8.01-2.676.02-.848.01-1.725.019-2.591.02l-2.507,0h-.03l-2.011,0c-1.261,0-2.284.005-3.217.016l-.38,0a4.233,4.233,0,0,1-3.163-1,3.6,3.6,0,0,1-.886-2.729c0-.156.005-.318.007-.489a5.792,5.792,0,0,1,.373-2.422,2.954,2.954,0,0,1,2.909-1.67,6.149,6.149,0,0,1,.695.042c0-.027,0-.056-.006-.085A10.429,10.429,0,0,1,203.39,77a12.914,12.914,0,0,1,9.319-4.166,10.506,10.506,0,0,1,4.523,1,3.309,3.309,0,0,1,1.989,2.24,4.69,4.69,0,0,1-.115,2.131c-.038.17-.073.33-.1.482-.019.108-.036.212-.052.315a4.832,4.832,0,0,1-.623,1.956,2.888,2.888,0,0,1-2.585,1.264,5.709,5.709,0,0,1-.626-.037c-.3-.033-.6-.074-.914-.116a17.9,17.9,0,0,0-2.286-.212c-.972,0-1.321.207-1.443.33a1.611,1.611,0,0,0-.246,1.02c.017,1.275.278,1.758,2.983,1.758.223,0,.454,0,.678-.005h.006c.226,0,.46-.005.69-.005a14.1,14.1,0,0,1,1.617.076,2.059,2.059,0,0,0,.229.011c.216,0,.472-.022.742-.044.321-.027.651-.054.995-.054a3.392,3.392,0,0,1,2.479.9,4.082,4.082,0,0,1,.972,3.074,5.408,5.408,0,0,1-.7,2.979,3.547,3.547,0,0,1-3.16,1.432C217.643,93.321,217.518,93.317,217.393,93.311Zm125.161-4.66a6.2,6.2,0,0,1-6.21-7.088,6.461,6.461,0,0,1,2.05-4.505,6.708,6.708,0,0,1,4.555-1.587H343a6.447,6.447,0,0,1,4.8,1.873,7.31,7.31,0,0,1,1.779,5l0,.125-.017.124a7.52,7.52,0,0,1-1.939,4.31,6.139,6.139,0,0,1-4.514,1.77C342.932,88.669,342.743,88.663,342.554,88.651ZM501.6,88.607a6.122,6.122,0,0,1-6.248-6.584c.091-3.98,2.646-6.551,6.51-6.551.1,0,.207,0,.311.005a6.344,6.344,0,0,1,4.5,1.857,6.891,6.891,0,0,1,1.73,4.631l0,.068,0,.068a7.176,7.176,0,0,1-1.9,4.732,6.394,6.394,0,0,1-4.668,1.777Zm14.162,0a6.725,6.725,0,0,1-4.992-1.93,6.379,6.379,0,0,1-1.649-4.808,6.784,6.784,0,0,1,1.847-4.639,6.363,6.363,0,0,1,4.631-1.768c.152,0,.308,0,.463.012,3.7.2,6.007,2.679,6.016,6.475V82a7.219,7.219,0,0,1-1.748,4.785,6.043,6.043,0,0,1-4.555,1.817Zm620.664-18.715c-.347-.03-.722-.03-1.051-.03h-.146a4.62,4.62,0,0,1-3.521-1.058c-.843-.855-1.224-2.178-1.2-4.165.248-19.091.252-38.9.009-58.876a5.275,5.275,0,0,1,1.2-3.981,4.531,4.531,0,0,1,3.39-1.1c.168,0,.338,0,.5,0h.005c.158,0,.321,0,.481,0,.309,0,.552-.009.763-.028.431-.04.814-.058,1.169-.058a4.61,4.61,0,0,1,3.433,1.193,5.85,5.85,0,0,1,1.221,4.279c-.183,6.946-.149,14.029-.115,20.879.013,2.719.027,5.531.027,8.3s-.015,5.584-.031,8.305c-.039,6.843-.078,13.919.13,20.858.023.822.1,3.317-1.855,4.585a8.149,8.149,0,0,1-4.239.894l-.087,0Zm-905.588-.122c-4.594-.109-9.379-.161-14.628-.161-4.782,0-9.862.043-15.989.135l-.19,0a4.8,4.8,0,0,1-3.8-1.332,5.692,5.692,0,0,1-1.049-3.751,5.3,5.3,0,0,1,1.158-3.894,4.9,4.9,0,0,1,3.623-1.167c.109,0,.222,0,.337,0,1.774.041,3.7.061,6.053.061,1.4,0,2.839-.006,4.107-.013,1.363-.006,2.772-.014,4.161-.014,2.8,0,5.056.029,7.113.092.14,0,.275.006.4.006,1.162,0,1.583-.179,1.732-.33s.382-.611.366-2.111c-.085-8.141-.08-16.416-.076-24.417,0-8.593.01-17.479-.1-26.213-.021-1.671.121-3.547,1.337-4.777C226.584.681,228.352.518,229.923.518h.231c1.825.023,3.678.215,4.875,1.463s1.308,3.154,1.263,4.665c-.208,6.8-.167,13.736-.129,20.443.016,2.7.032,5.492.032,8.24,0,2.675-.007,5.394-.014,8.023-.02,6.779-.04,13.789.071,20.672.024,1.552-.047,3.307-1.21,4.49a5.351,5.351,0,0,1-3.9,1.257C231.047,69.772,230.943,69.771,230.836,69.769Zm628.375-.663A37.755,37.755,0,0,1,846.7,65.7a23.787,23.787,0,0,1-8.628-6.986,24.49,24.49,0,0,1-4.489-10.742,40.825,40.825,0,0,1,.222-13.637c.052-.311.118-.608.182-.894.044-.2.086-.386.121-.569l0-.011a42.11,42.11,0,0,1,1.217-5.083,6.666,6.666,0,0,1,2.138-3.308c1.867-1.46,4.541-1.6,9.5-1.73l2.2-.059-.749,2.069a51.7,51.7,0,0,0-2.8,10.987,33.765,33.765,0,0,0,.306,10.947,14.453,14.453,0,0,0,4.09,8,16.525,16.525,0,0,0,8.029,3.953,58.543,58.543,0,0,0,12.573,1.094c1.423,0,2.875-.021,4.279-.041s2.854-.041,4.314-.041c1.219,0,2.307.015,3.323.046l.12,0a2.088,2.088,0,0,0,.5-.048,5.916,5.916,0,0,0-.022-.9c-.021-.28-.041-.57-.04-.869.008-2.192.022-4.417.037-6.57.05-7.576.1-15.411-.112-23.1-.059-2.1.319-3.458,1.225-4.389a5.52,5.52,0,0,1,4.132-1.284c.19,0,.387,0,.6.009a8.073,8.073,0,0,1,4.225.841c1.717,1.118,1.871,3.233,1.837,4.727-.185,8.464-.155,17.087-.126,25.426.013,3.63.026,7.382.022,11.074,0,.192.008.4.016.616a4.4,4.4,0,0,1-.884,3.455,3.863,3.863,0,0,1-2.939,1.032l-.146,0c-1.271-.025-2.615-.037-4.113-.037-2.132,0-4.307.025-6.409.049l-.141,0c-2.109.024-4.289.049-6.435.049A134.824,134.824,0,0,1,859.21,69.106ZM793.8,69.7c-.173-.014-.37-.022-.6-.022-.206,0-.419.005-.625.011h-.008c-.221.005-.449.012-.677.012a4.228,4.228,0,0,1-3.2-1.072,5.285,5.285,0,0,1-1.193-3.99c.248-19.069.251-38.877.008-58.875a5.275,5.275,0,0,1,1.2-3.981,4.534,4.534,0,0,1,3.391-1.1c.168,0,.338,0,.5,0h.005c.158,0,.32,0,.48,0,.309,0,.552-.009.763-.028C794.27.63,794.65.61,795,.61a4.62,4.62,0,0,1,3.44,1.2,5.845,5.845,0,0,1,1.22,4.277c-.184,6.972-.15,14.082-.117,20.958.013,2.693.025,5.477.025,8.217,0,2.763-.015,5.57-.03,8.285-.038,6.85-.076,13.932.129,20.877.059,1.954-.319,3.28-1.185,4.174a4.562,4.562,0,0,1-3.395,1.169C794.718,69.764,794.3,69.743,793.8,69.7Zm-538.633.061a4.548,4.548,0,0,1-3.347-1.139c-.869-.878-1.264-2.2-1.245-4.159.213-20.037.212-39.683,0-58.393-.017-1.453.151-3.51,1.794-4.613a7.21,7.21,0,0,1,3.9-.826l.424-.014c.28-.01.53-.015.766-.015A5.382,5.382,0,0,1,261.5,1.888c1.185,1.22,1.271,3.083,1.233,4.379-.2,6.912-.159,13.962-.121,20.779.015,2.75.031,5.592.031,8.39,0,2.841-.022,5.728-.042,8.519-.051,6.773-.1,13.776.151,20.635a5.2,5.2,0,0,1-1.116,4.01,4.248,4.248,0,0,1-3.254,1.1c-.229,0-.461-.006-.684-.012h-.01c-.21-.005-.426-.011-.634-.011-.231,0-.427.007-.6.021-.506.043-.916.062-1.291.062ZM87.43,69.754c-8.772-.067-17.663-.073-26.018-.073H57.443c-8.3,0-16.872,0-25.508-.053A53.592,53.592,0,0,1,21.02,68.408,29.125,29.125,0,0,1,10.85,64.237a23.192,23.192,0,0,1-7-7.318A26.842,26.842,0,0,1,.374,46.94,40.62,40.62,0,0,1,.55,34.813c.071-.453.166-.883.257-1.3.051-.232.1-.453.142-.672a42.008,42.008,0,0,1,1.215-5.079,6.642,6.642,0,0,1,2.138-3.3c1.867-1.457,4.54-1.592,9.5-1.719l2.2-.057-.75,2.067a51.6,51.6,0,0,0-2.8,10.978,33.732,33.732,0,0,0,.3,10.937c1.272,6.529,5.227,10.441,12.093,11.958a58.6,58.6,0,0,0,12.6,1.1c1.389,0,2.8-.02,4.168-.039h.065c1.352-.018,2.749-.037,4.127-.037,1.3,0,2.446.017,3.511.051l.134,0a2.144,2.144,0,0,0,.522-.05,5.918,5.918,0,0,0-.007-.916c-.014-.257-.03-.523-.029-.8.005-2.4.02-4.847.033-7.209.042-7.358.085-14.966-.108-22.43-.041-1.537.075-3.268,1.226-4.45s2.831-1.328,4.489-1.328h.111c1.835.011,3.728.129,4.957,1.409.934.972,1.318,2.388,1.244,4.59-.188,5.612-.163,11.34-.139,16.88.018,4.027.036,8.19-.027,12.29-.021,1.377.181,1.732.269,1.822.054.056.305.236,1.25.236.115,0,.239,0,.368-.009,2.6-.114,5.242-.173,7.85-.173s5.251.058,7.852.174c.129.005.255.008.373.008a2.106,2.106,0,0,0,1.245-.231c.085-.087.284-.438.263-1.8-.071-4.615-.06-9.3-.05-13.834.011-5.036.022-10.245-.078-15.359-.034-1.756.032-3.573,1.23-4.8A4.726,4.726,0,0,1,85.832,22.5c.284,0,.589.013.908.037.276.022.548.038.811.054a6.964,6.964,0,0,1,3.829.958c1.6,1.166,1.73,3.252,1.689,4.719-.347,12.415-.225,24.612-.04,35.945A5.813,5.813,0,0,1,91.8,68.475a5.742,5.742,0,0,1-4.241,1.28Zm1023.913,0h-.14c-8.209-.057-17.034-.082-28.616-.082-4.566,0-9.208,0-13.7.007s-9.13.007-13.7.007c-18.36,0-37.345,0-56.019,0-.284,0-.576.013-.884.027s-.631.028-.949.028a4.151,4.151,0,0,1-3.119-1.071,5.16,5.16,0,0,1-1.175-3.91c.021-1.3.207-3.162,1.577-4.245a5.555,5.555,0,0,1,3.559-.892c.238,0,.476,0,.729.006h.066c1.758.024,3.655.035,5.971.035,1.441,0,2.893,0,4.3-.008h.018c1.4,0,2.84-.008,4.261-.008,3.154,0,5.581.021,7.868.067l.262,0c1.147,0,1.358-.176,1.366-.185s.212-.277.09-1.743c-1.132-13.374-7.439-21.709-19.282-25.479a5.27,5.27,0,0,1-3.422-2.486c-.733-1.516-.153-3.05.313-4.283a8.6,8.6,0,0,0,.442-1.377,4.755,4.755,0,0,1,1.008-2.354,2.741,2.741,0,0,1,2.107-.945,5.975,5.975,0,0,1,2.584.8c.274.134.532.26.727.331a51,51,0,0,1,10.737,5.281,36.77,36.77,0,0,1,8.284,7.4,33.611,33.611,0,0,1,5.485,9.642,41.479,41.479,0,0,1,2.387,11.91,4.8,4.8,0,0,0,.77,2.925c.264.273.829.634,2.677.634.139,0,.285,0,.436-.005,4.986-.136,10.322-.2,16.313-.2,6.462,0,12.838.076,18.814.152l.2,0a3.325,3.325,0,0,0,2.062-.4,2.715,2.715,0,0,0,.338-1.739c-.03-1.36,0-2.728.037-4.052a35.477,35.477,0,0,0-.491-8.741c-1.84-8.222-5.525-11.438-14.082-12.293a42.531,42.531,0,0,0-4.261-.2c-2.389,0-4.836.162-7.136.328-.346.025-.645.038-.912.038a3.718,3.718,0,0,1-2.942-1.084,3.7,3.7,0,0,1-.658-3.117,6.028,6.028,0,0,0,0-1.12,5.229,5.229,0,0,1,.393-2.852,4.048,4.048,0,0,1,3.509-1.925c3.306-.3,6.026-.433,8.562-.433a51.466,51.466,0,0,1,10.277.948,28.1,28.1,0,0,1,7.958,2.808,20.559,20.559,0,0,1,5.964,4.882,22.254,22.254,0,0,1,3.826,6.892,34.005,34.005,0,0,1,1.713,8.758,75.7,75.7,0,0,1-.109,11.9,3.027,3.027,0,0,0,.066,1.338,1.417,1.417,0,0,0,.465.055,5.322,5.322,0,0,0,.654-.048,2.634,2.634,0,0,1,.355-.022c.075,0,.143,0,.2.005h.005l.109,0c.137,0,.277,0,.419,0,1.588,0,3.273.148,4.9.292,1.571.139,3.2.281,4.645.281,2.267,0,3.748-.344,4.662-1.081,1.747-1.411,1.3-5.177.867-8.819a42,42,0,0,1-.41-5.3c.193-14.837.181-27.2-.036-38.911-.026-1.5.146-3.62,1.939-4.734a8.04,8.04,0,0,1,4.158-.793l.128,0c.149,0,.294-.006.432-.006a5.451,5.451,0,0,1,4,1.257,5.9,5.9,0,0,1,1.276,4.3c-.164,18.906-.165,38.561,0,58.416a5.488,5.488,0,0,1-1.179,4,5.459,5.459,0,0,1-4.052,1.192Zm-183.664-.03c-1.942-.085-3.981-.128-6.234-.128-2.848,0-5.643.068-7.762.129-.1,0-.2,0-.29,0a4.114,4.114,0,0,1-3-.994,4.435,4.435,0,0,1-1.021-3.253c.068-19.194.115-39.784-.011-60.305a4.86,4.86,0,0,1,1.131-3.611A3.72,3.72,0,0,1,913.2.582c.412,0,.813.036,1.2.071.341.031.661.058.941.058a2.526,2.526,0,0,0,.345-.02A10.806,10.806,0,0,1,917.2.57a4.051,4.051,0,0,1,3.041,1.1,5.3,5.3,0,0,1,1.23,4c-.086,8.234-.083,16.612-.078,24.715,0,8.637.009,17.57-.1,26.359-.017,1.541.143,2.494.478,2.832a1.489,1.489,0,0,0,1.029.257,7.311,7.311,0,0,0,1.208-.119,9.684,9.684,0,0,1,1.67-.126c.428,0,.851.018,1.259.035s.789.034,1.149.034h.054c6.19-.027,8.185-1.929,8.541-8.136.039-.688.074-1.388.107-2.066.231-4.69.471-9.54,2.5-14.176a24.3,24.3,0,0,1,3.662-5.981,20.029,20.029,0,0,1,5.081-4.3,22.865,22.865,0,0,1,6.444-2.542,34.023,34.023,0,0,1,7.739-.824c.635,0,1.292.014,1.954.041A20.036,20.036,0,0,1,975.342,25.3a18.36,18.36,0,0,1,6.633,9.47,30.732,30.732,0,0,1,1.556,8.5c.112,4,.1,8.064.087,11.992-.009,3.251-.019,6.611.041,9.909a4.721,4.721,0,0,1-1.055,3.462,4.512,4.512,0,0,1-3.306,1.091l-.237,0c-2.386-.046-4.734-.052-6.717-.052l-2.442,0h-.08l-2.289,0c-3.154,0-6.536-.016-9.9-.136a23.693,23.693,0,0,1-8.836-1.847,18.84,18.84,0,0,1-6.186-4.4,14.656,14.656,0,0,1-5.34,4.711A17.854,17.854,0,0,1,929,69.749C928.57,69.749,928.127,69.739,927.679,69.72Zm24.742-34.57a17.359,17.359,0,0,0-3.75,8.734,19.779,19.779,0,0,0,1.346,9.487,8.359,8.359,0,0,0,4.924,5.11,22.8,22.8,0,0,0,7.787,1.165c1.112.021,2.263.042,3.232.042,3.346,0,4.639-.268,5.127-1.065.693-1.131.695-3.947.695-8.211-.05-1.053-.047-2.111-.042-3.232a31.057,31.057,0,0,0-.6-7.571,11.592,11.592,0,0,0-2.425-5,8.307,8.307,0,0,0-4.544-2.576,18.1,18.1,0,0,0-3.96-.482A9.3,9.3,0,0,0,952.421,35.15ZM577.126,69.734c-7.952-.021-16.45-.03-27.557-.03l-13.778,0h-.041q-7,0-14.01,0c-18.493,0-38.336-.023-58.136-.192a28.174,28.174,0,0,1-9.635-1.646,19.1,19.1,0,0,1-11.734-12.1,28.43,28.43,0,0,1-1.394-9.653,27.857,27.857,0,0,1,1.862-9.8,22.912,22.912,0,0,1,4.97-7.722,22.439,22.439,0,0,1,7.577-5.062,26.373,26.373,0,0,1,9.588-1.9c.372-.006.75-.009,1.121-.009a62.763,62.763,0,0,1,16.13,2.087c3.321.87,4.705,2.726,4.628,6.205-.111,4.917-.1,9.926-.086,14.771.011,4.253.022,8.651-.05,12.983-.023,1.376.176,1.729.262,1.816.057.058.321.246,1.336.246.094,0,.193,0,.3,0,3.393-.105,6.8-.159,10.13-.159s6.674.054,9.938.159c.167.005.324.008.47.008,1.163,0,1.583-.181,1.732-.332s.378-.612.342-2.07c-.112-4.653-.091-9.373-.071-13.938.022-5.012.044-10.194-.11-15.275-.059-1.953.312-3.286,1.17-4.195,1.211-1.284,3-1.334,4.892-1.386.215-.006.41-.009.6-.009a5.539,5.539,0,0,1,4.144,1.285c.905.931,1.282,2.284,1.221,4.387-.155,5.4-.135,10.914-.116,16.242.015,4.246.031,8.636-.041,12.961-.024,1.477.14,1.96.284,2.105.057.058.317.247,1.276.247.156,0,.326-.005.5-.015,1.994-.111,4.154-.162,6.8-.162,1.618,0,3.219.018,4.915.037q1.226.015,2.488.026a26.524,26.524,0,0,1-3.921-12.028,27.486,27.486,0,0,1,3.4-14.492,21.03,21.03,0,0,1,8.824-8.726,26.691,26.691,0,0,1,12.587-3.065,28.832,28.832,0,0,1,6.983.861,18.455,18.455,0,0,1,10.933,7.046c2.488,3.467,3.821,8.067,3.965,13.673.1,3.961.081,7.979.061,11.867-.018,3.3-.036,6.714.022,10.063a5.039,5.039,0,0,1-1.1,3.724,4.93,4.93,0,0,1-3.644,1.165Zm-27.9-32.8a16.833,16.833,0,0,0-2.572,8.06,13.849,13.849,0,0,0,1.619,7.2,13.707,13.707,0,0,0,5.055,5.236,16.479,16.479,0,0,0,8.005,2.232c1.595.052,2.973.1,4.109.1,2.333,0,3.53-.205,4-.685.8-.814.747-3.611.668-7.844v-.032c0-.783,0-1.578.005-2.346.008-1.932.015-3.931-.025-5.887a15.082,15.082,0,0,0-.374-2.612c-1.021-5.116-3.662-7.932-8.076-8.612a14.775,14.775,0,0,0-2.225-.173A11.7,11.7,0,0,0,549.222,36.931ZM473.409,59.713a5.28,5.28,0,0,0,.564.033,1.232,1.232,0,0,0,.7-.122c.04-.041.235-.319.176-1.715-.115-2.772-.091-5.575-.067-8.287.009-1.121.02-2.281.02-3.417,0-1.045,0-2.107.005-3.133.006-2.625.013-5.341-.024-8,0-.242.005-.467.014-.684.038-.95.014-1.09-.476-1.4a12.967,12.967,0,0,0-6.654-1.48,21.9,21.9,0,0,0-6.948,1.123,9.907,9.907,0,0,0-4.647,2.916,15.682,15.682,0,0,0-3.272,8.381,20.522,20.522,0,0,0,1.561,9.015,8.819,8.819,0,0,0,4.745,5.1,22.357,22.357,0,0,0,7.478,1.589c.425.033.893.049,1.433.049.521,0,1.039-.014,1.586-.029h.032c.52-.015,1.112-.032,1.693-.032A19.688,19.688,0,0,1,473.409,59.713Zm-259.878-5.57-.067-.016c-.133-.031-.307-.073-.451-.1l-.39.077a11.784,11.784,0,0,1-2.289.26,4.939,4.939,0,0,1-3.344-1.11,6.468,6.468,0,0,1-1.886-3.284c-2.314-8.157-4.769-16.425-7.143-24.421-1.831-6.163-3.722-12.536-5.539-18.819a6.465,6.465,0,0,0-.264-.622c-.443-.963-1.112-2.419-.3-3.7.835-1.317,2.591-1.333,3.168-1.338a7.275,7.275,0,0,0,1.834-.451A9.267,9.267,0,0,1,199.742,0a3.7,3.7,0,0,1,2.479.884,5.46,5.46,0,0,1,1.58,2.684c3.361,11.219,6.679,22.656,9.888,33.716,1.173,4.045,2.387,8.227,3.585,12.337.353,1.21.653,2.738-.158,3.82a2.408,2.408,0,0,1-2.033.938A6.7,6.7,0,0,1,213.531,54.143ZM137.017,17.117c-3.957-.217-6.278-2.535-6.368-6.36a6.572,6.572,0,0,1,1.681-4.882,6.552,6.552,0,0,1,4.83-1.792h.02a6.426,6.426,0,0,1,4.63,1.711,6.328,6.328,0,0,1,1.742,4.6c.018,3.973-2.361,6.485-6.364,6.72l-.085.005Zm335.128-.006a6.93,6.93,0,0,1-4.664-1.92,6.505,6.505,0,0,1-1.64-4.849,6.368,6.368,0,0,1,1.824-4.6A6.626,6.626,0,0,1,472.2,4.071l.193,0a6.4,6.4,0,0,1,4.549,1.667,6.232,6.232,0,0,1,1.813,4.5,6.83,6.83,0,0,1-1.572,4.782,6.738,6.738,0,0,1-4.839,2.091l-.1.006Zm387.579,0a6.9,6.9,0,0,1-4.606-1.781,6.383,6.383,0,0,1-1.812-4.505,6.565,6.565,0,0,1,1.688-4.9,6.609,6.609,0,0,1,4.857-1.889h.063A6.048,6.048,0,0,1,866.3,10.36c.041,4.021-2.362,6.546-6.429,6.751l-.076,0Zm-833.13,0a6.929,6.929,0,0,1-4.629-1.768,6.379,6.379,0,0,1-1.83-4.5,6.573,6.573,0,0,1,1.674-4.9,6.615,6.615,0,0,1,4.851-1.9h.088a6.384,6.384,0,0,1,4.568,1.708,6.339,6.339,0,0,1,1.818,4.6,6.725,6.725,0,0,1-1.65,4.794,6.728,6.728,0,0,1-4.742,1.975l-.075,0Zm123.9-.012a6.913,6.913,0,0,1-4.621-2.043,6.54,6.54,0,0,1-1.549-4.865,6.344,6.344,0,0,1,1.943-4.5,6.7,6.7,0,0,1,4.624-1.614h.035a6.429,6.429,0,0,1,4.658,1.747,6.406,6.406,0,0,1,1.741,4.568c.045,4.11-2.449,6.618-6.671,6.708l-.08,0Zm307.468,0-.082,0-.08-.01c-3.782-.49-6.016-3.083-5.832-6.77a6.712,6.712,0,0,1,1.813-4.5,6.289,6.289,0,0,1,4.58-1.733c.215,0,.437.008.66.023a6.481,6.481,0,0,1,4.557,2.085,6.337,6.337,0,0,1,1.455,4.63,6.552,6.552,0,0,1-1.985,4.592,7.019,7.019,0,0,1-4.868,1.69C458.105,17.1,458.033,17.1,457.961,17.1Zm415.134-.059a6.484,6.484,0,0,1-4.529-2.025,6.4,6.4,0,0,1-1.49-4.622,6.664,6.664,0,0,1,1.83-4.575A6.59,6.59,0,0,1,874.022,4.1a6.02,6.02,0,0,1,4.494,2.015,7.322,7.322,0,0,1,1.539,4.558l.005.126-.016.126c-.513,3.956-2.755,6.134-6.315,6.134C873.523,17.061,873.31,17.054,873.095,17.04ZM40.27,17.052a6.542,6.542,0,0,1-4.625-1.773A6.377,6.377,0,0,1,33.9,10.75,6.574,6.574,0,0,1,35.637,5.9a6.626,6.626,0,0,1,4.854-1.828c3.745,0,6.073,2.282,6.391,6.262l.01.128-.012.128a7.708,7.708,0,0,1-1.692,4.539,5.989,5.989,0,0,1-4.737,1.923ZM1060.6,15.921a8.064,8.064,0,0,1-4.564-2.027,6.436,6.436,0,0,1-1.9-4.739,6.545,6.545,0,0,1,1.829-4.88,6.853,6.853,0,0,1,4.745-1.861c.079,0,.161,0,.241,0,3.8,0,6.408,2.66,6.488,6.62a6.305,6.305,0,0,1-1.85,4.777,8.388,8.388,0,0,1-4.517,2.107l-.236.04Zm-885.31-.039a8.755,8.755,0,0,1-4.441-2.107,6.063,6.063,0,0,1-1.8-4.863A6.837,6.837,0,0,1,171,4.2a6.682,6.682,0,0,1,4.783-1.794h.1a6.54,6.54,0,0,1,4.746,1.9,6.823,6.823,0,0,1,1.8,4.943,6.369,6.369,0,0,1-2,4.7,8.2,8.2,0,0,1-4.676,1.957l-.236.028Zm-88.3-.076h-.006A6.856,6.856,0,0,1,82.1,13.829a6.545,6.545,0,0,1-1.737-4.792c.075-3.68,2.424-6.131,6.445-6.725L87,2.284l.192.021a7.774,7.774,0,0,1,4.763,2.1A6.534,6.534,0,0,1,93.774,9.14a6.74,6.74,0,0,1-1.868,4.781,6.648,6.648,0,0,1-4.782,1.885Zm472.051-.253a6.547,6.547,0,0,1-4.732-1.916,6.678,6.678,0,0,1-1.673-4.929A6.741,6.741,0,0,1,554.487,4a6.441,6.441,0,0,1,4.653-1.742c.094,0,.192,0,.288,0a6.555,6.555,0,0,1,4.693,1.93A7.161,7.161,0,0,1,565.9,8.918l0,.093L565.9,9.1a7.215,7.215,0,0,1-1.993,4.716,6.455,6.455,0,0,1-4.641,1.737Z" transform="translate(13738.939 19450.676)" fill="#fff"/>
    <path id="Union_118" data-name="Union 118" d="M688.279,88.853c-1.163-.994-2.7-2.567-2.645-4.746a5.477,5.477,0,0,1,2.635-4.172,9.681,9.681,0,0,1,2.723-1.9,3.607,3.607,0,0,1,2.537-.416c.107-.025.3.1.3.1s10.606,7.5,15.652,7.5a14.832,14.832,0,0,0,7.018-1.782c3.907-2.073,6.09-6.809,6.128-12.88a26.671,26.671,0,0,1-13.73,4.026c-6.763,0-13.03-2.871-18.124-8.3a23.571,23.571,0,0,1,.024-32.6c5.1-5.417,11.362-8.281,18.114-8.281a26.529,26.529,0,0,1,14.095,4.287,4.169,4.169,0,0,1,1.085-1.888,5.374,5.374,0,0,1,4.006-1.484c1.978.094,6.442.334,6.381,5.743-.049,4.7-.035,9.411-.022,14.119.027,8.937.052,17.872-.346,26.789C733.622,84.11,728,91.872,718.3,94.817A35.245,35.245,0,0,1,708.1,96.4,29.862,29.862,0,0,1,688.279,88.853ZM709.51,36.7a13.332,13.332,0,1,0-.084,26.664,13.03,13.03,0,0,0,13.261-13.23c.031-7.651-5.4-13.3-12.925-13.432l-.253-3.036ZM797.2,76.3c-8.958-.11-15.669-2.705-20.519-7.933-1.372-1.165-3.086-2.6-2.9-4.886a5,5,0,0,1,2.808-3.857c1.506-1.363,2.859-2.62,4.907-2.62,2.58,0,4.264,2.056,4.817,2.732a13.261,13.261,0,0,0,10.305,4.892,13.864,13.864,0,0,0,5.732-1.241c3.858-1.741,5.65-4.392,5.638-8.344-.01-3.648-1.733-5.868-5.763-7.426-2.12-.82-4.266-1.574-6.413-2.33-2.335-.822-4.669-1.644-6.973-2.544-10.01-3.917-14.731-11.282-13.656-21.3,1.047-9.749,7.52-16.383,17.762-18.2,1.292-.229,2.6-.361,3.905-.491l1.642-.171c7.035.039,12.6,2.026,16.916,5.886,1.44.974,3.272,2.2,3.451,4.436a4.88,4.88,0,0,1-1.8,4.03c-1.545,1.555-3.115,3.148-5.5,3.148a6.536,6.536,0,0,1-4.778-2.429c-3.217-3.478-7.515-4.218-13.253-2.407-4,1.264-5.857,3.468-6.027,7.143-.223,4.8,1.119,7.1,5.128,8.781,2.441,1.021,4.972,1.843,7.5,2.668,1.461.476,2.921.952,4.367,1.463,12.224,4.325,17.313,12.015,15.559,23.508C818.514,68.946,809.033,76.3,797.515,76.3ZM86.218,61.107c-.046-2.534-.035-5.072-.024-7.61l.009-3.254-.033-3.507c-.04-2.829-.077-5.656.1-8.472A3.437,3.437,0,0,0,86.22,37.1L86,37.131l-1.289.578-1.286-.035c-4.39.037-6.436-2.128-6.437-5.755a5.689,5.689,0,0,1,1.517-4.2A5.033,5.033,0,0,1,82.2,26.3h.276l1.259.15a8.43,8.43,0,0,0,1.518.162c.924-.147,1.372-.74,1.01-3.247a17.266,17.266,0,0,1-.041-3.549c.146-2.641,1.208-5.217,5.6-5.25l1.076-.031a4.766,4.766,0,0,1,5.053,5.5l.008,1.141a23.1,23.1,0,0,0,.386,4.99c.32.052,2.633.127,4.871.2h1.218v-.016c4.751,0,5.372,3.786,5.418,5.413a5.767,5.767,0,0,1-1.442,4.416,5.741,5.741,0,0,1-4.347,1.506l-1.022,0a23.658,23.658,0,0,0-5.082.382c0,.292,0,2.618,0,4.869L97.951,48.3l.011,11.816c.023,4.333,1.12,4.333,2.637,4.333a13.149,13.149,0,0,0,2.4-.264,6.935,6.935,0,0,1,2.78-.76c1.082,0,3.662.437,4.261,4.476.813,5.478-3.349,6.7-4.716,7.1a20.187,20.187,0,0,1-5.663.869C91.644,75.877,86.367,70.08,86.218,61.107Zm237.447-.268c-.034-2.519-.026-5.045-.018-7.57l.007-11.137a22.176,22.176,0,0,0-.194-4.247,19.1,19.1,0,0,1-3.558-.176c-3.551-.326-5.384-2.171-5.453-5.485a5.984,5.984,0,0,1,1.515-4.492,4.846,4.846,0,0,1,3.569-1.429h.324l1.176.169a8.631,8.631,0,0,0,1.774.228c1.142-.642.959-3.4.9-4.312-.2-2.127-.412-4.373,1.188-6.133a6.071,6.071,0,0,1,4.713-1.776c2.166.036,3.61.589,4.613,1.7a5.785,5.785,0,0,1,1.167,4.642,16.336,16.336,0,0,1-.053,4.195,3.636,3.636,0,0,0-.071,1.69c.821-.157,1.219-.2,1.654-.265a12.01,12.01,0,0,1,1.841-.129l2.4.066c2.472-.026,6.035.531,6.1,5.69a5.682,5.682,0,0,1-1.43,4.158,5.706,5.706,0,0,1-4.151,1.489c-.931-.006-1.895-.083-2.871-.165-.869-.072-1.75-.149-2.553-.149a3.808,3.808,0,0,0-1.192.113c-.26.386-.039,2.437.14,4.085a27.947,27.947,0,0,1,.228,3.637c-.119,4.535-.077,9.073-.038,13.61l.013,1.516c.031,4.1,1.177,4.1,2.763,4.1a13.092,13.092,0,0,0,2.114-.2,5.345,5.345,0,0,1,2.849-.955c1.014,0,3.461.4,4.278,4.15.594,2.717.217,6.249-4.958,7.634a20.869,20.869,0,0,1-5.356.752C328.929,75.846,323.78,70.1,323.665,60.839Zm685.073,12.642c-9.367-3.942-14.423-11.791-14.62-22.7.22-11.076,4.921-18.745,13.975-22.909,9-4.144,17.828-3.293,25.36,2.437,1.592.971,3.422,2.072,3.805,4.264a4.912,4.912,0,0,1-1.215,4.028c-.66.812-2.417,2.975-5.219,2.976a7.113,7.113,0,0,1-4.7-2.037,11.574,11.574,0,0,0-7.684-2.946,12.225,12.225,0,0,0-8.886,3.984c-4.793,5.163-4.858,14.59-.137,19.778a12.156,12.156,0,0,0,9.017,4.163,11.914,11.914,0,0,0,7.88-3.066,6.785,6.785,0,0,1,4.458-1.948c2.366,0,3.93,1.6,4.865,2.556a4.918,4.918,0,0,1,1.617,4.045,5.466,5.466,0,0,1-2.889,3.881c-4.7,3.938-9.617,5.815-14.959,5.815A27.544,27.544,0,0,1,1008.738,73.481ZM125.806,71.063c-9.57-7.271-12.515-22.181-6.568-33.238a23.969,23.969,0,0,1,21.19-12.542,24.6,24.6,0,0,1,7.741,1.253c9.518,3.151,16.183,13.84,14.858,23.828-.284,2.153-1.453,4.722-5.405,4.722l-15.355,0-8.109.091c-1.8,0-3.6-.04-5.386-.167l-.313.009c.056.211.131.467.229.774a12.352,12.352,0,0,0,11.963,8.71,14.2,14.2,0,0,0,9.482-3.774c1.455-1.516,2.775-2.915,4.9-2.915a7.082,7.082,0,0,1,6.247,6.6c-.138,2.261-1.8,3.577-2.79,4.363a25.252,25.252,0,0,1-17.808,6.958A24.651,24.651,0,0,1,125.806,71.063Zm25.03-27.177c-.01-.031-.021-.063-.031-.1-1.448-4.433-6.628-7.561-11.991-7.068-4.687.431-7.97,2.9-9.5,7.065l10.866-.046C143.734,43.741,147.287,43.773,150.836,43.886ZM271.9,71.268c-9.674-7.1-12.82-21.978-7.014-33.168A23.909,23.909,0,0,1,286.26,25.293a24.243,24.243,0,0,1,7.966,1.343c9.224,3.2,15.522,13.218,14.649,23.3-.2,2.353-1.34,5.161-5.621,5.161l-6.736-.018-16.494.088c-1.876,0-3.749-.037-5.617-.158l-.146.005c.042.167.1.361.161.586a12.209,12.209,0,0,0,11.983,8.9,14.252,14.252,0,0,0,9.653-3.912c1.438-1.372,2.827-2.7,4.884-2.7a5.962,5.962,0,0,1,4.344,2.2,5.716,5.716,0,0,1,1.821,4.315,5.91,5.91,0,0,1-2.614,4.17,25.162,25.162,0,0,1-18.024,7.155A24.735,24.735,0,0,1,271.9,71.268Zm24.747-27.4c-.028-.083-.059-.17-.092-.263-1.448-4.029-5.976-6.953-10.768-6.953-5.135.246-9.443,3.219-11.047,7.142,1.414-.009,2.619-.014,3.824-.014l6.731.019,6.867-.094C293.661,43.71,295.158,43.75,296.646,43.873ZM1052,71.075c-9.58-7.255-12.546-22.161-6.611-33.227a23.982,23.982,0,0,1,21.222-12.564,24.6,24.6,0,0,1,7.7,1.237c9.486,3.126,16.164,13.8,14.889,23.8-.276,2.173-1.445,4.764-5.448,4.764l-5.45,0-17.944.091c-1.8,0-3.6-.04-5.39-.166l-.343.01c.054.207.126.457.221.756a12.357,12.357,0,0,0,11.982,8.727,14.2,14.2,0,0,0,9.468-3.756c1.447-1.535,2.751-2.947,4.9-2.947a7.106,7.106,0,0,1,6.256,6.583,6.116,6.116,0,0,1-2.763,4.369,25.229,25.229,0,0,1-17.829,6.981A24.636,24.636,0,0,1,1052,71.075Zm24.964-27.2c-.051-.139-.11-.294-.178-.465a11.317,11.317,0,0,0-10.641-6.757c-5.257.34-9.409,3.256-11.038,7.145,1.293-.015,2.462-.022,3.632-.022l7.22.029,6.637-.094C1074.056,43.709,1075.514,43.749,1076.963,43.873ZM838.262,71.13c-9.614-7.209-12.636-22.107-6.737-33.208a24,24,0,0,1,21.309-12.638,24.613,24.613,0,0,1,7.573,1.2c9.4,3.037,16.119,13.673,14.979,23.71-.364,3.248-2.266,4.9-5.654,4.9l-7.165-.017-16.113.085c-1.9,0-3.788-.036-5.677-.154.027.113.058.239.094.379A12.273,12.273,0,0,0,853,64.482a14.018,14.018,0,0,0,9.4-3.705c1.627-1.584,3.028-2.959,5.122-2.959a6.109,6.109,0,0,1,4.566,2.593,5.808,5.808,0,0,1,1.488,4.461,6.327,6.327,0,0,1-3.021,4.191,25.443,25.443,0,0,1-17.505,6.657A24.694,24.694,0,0,1,838.262,71.13Zm24.9-27.27q-.049-.139-.105-.3c-1.466-4.068-5.885-6.907-10.746-6.907l-1.024.042a12.329,12.329,0,0,0-10.016,7.093l3.676-.012,6.932.017,6.881-.1C860.233,43.7,861.7,43.739,863.163,43.86ZM454.689,74.2c-6.185-2.078-9.684-6.9-9.852-13.576-.166-6.553,2.769-11.516,8.487-14.352a35.674,35.674,0,0,1,16.209-3.44c1.192,0,2.385.041,3.576.113l1.21-.073a13.941,13.941,0,0,1-.355-1.533c-.541-2.371-2.1-3.771-4.759-4.28a21.821,21.821,0,0,0-4.081-.412,13.14,13.14,0,0,0-8.115,2.534,6.533,6.533,0,0,1-3.849,1.48c-2.533,0-4.041-1.948-4.685-2.781a5.154,5.154,0,0,1-1.226-4.235,5.644,5.644,0,0,1,3.184-3.7,28.887,28.887,0,0,1,15.19-4.576,28.072,28.072,0,0,1,8.4,1.322c6.953,2.174,10.942,7.257,11.229,14.308.148,3.627.167,7.259.184,10.892.026,5.584.054,11.357.6,16.951a5.327,5.327,0,0,1-1,4.349,4.164,4.164,0,0,1-3.208,1.335l-2.3.13a4.541,4.541,0,0,1-4.363-2.885A19.865,19.865,0,0,1,463.2,75.7,26.863,26.863,0,0,1,454.689,74.2Zm17.925-20.479c-3.835.022-7.457.041-10.87,1.13-5.726,1.829-5.31,4.62-5.153,5.671.348,2.335,3.039,3.923,6.7,3.952h0c3.616,0,6.451-1.043,8.331-3.017a10.281,10.281,0,0,0,2.521-7.751Zm626.947,15.767c-1.353-1.189-2.923-2.553-2.924-4.772a5.164,5.164,0,0,1,2.013-3.933c1.129-.983,2.677-2.331,4.829-2.331,2.644,0,4.377,2.058,4.946,2.734a9.64,9.64,0,0,0,7.427,3.334,9.235,9.235,0,0,0,4.123-.934c2.391-1.2,2.695-2.509,2.668-3.75-.014-.626-.047-2.1-2.513-2.893-2.062-.668-4.177-1.166-6.292-1.669-1.5-.356-3-.713-4.489-1.122-9.339-2.572-11.432-8.672-11.542-13.334a14.851,14.851,0,0,1,11.316-14.441c8.676-2.349,15.795-.68,21.146,4.855,1.178,1.061,2.778,2.493,2.656,4.728a4.9,4.9,0,0,1-2.306,3.754c-1.469,1.112-2.81,2.135-4.687,2.135a6.186,6.186,0,0,1-4.621-2.407,7.923,7.923,0,0,0-5.917-2.846,7.738,7.738,0,0,0-3.986,1.143c-1.6.964-1.716,1.713-1.695,2.459.023.766.174,1.522,1.76,2.321a24.114,24.114,0,0,0,6.394,1.809c1.126.213,2.253.428,3.364.7,9.667,2.368,14.09,7.911,13.145,16.476-.9,8.084-7.634,13.721-16.753,14.032l-1.362.013-.006-.012-1.547.026A20.4,20.4,0,0,1,1099.562,69.484ZM6.348,74.669a6.489,6.489,0,0,1-4.787-1.635c-1.48-1.5-1.58-3.469-1.559-5.2C.087,60.824.074,53.811.059,46.8L.049,38.9l0-7.722L.039,10.924C.01,9.1-.022,7.214,1.448,5.714A5.929,5.929,0,0,1,5.893,4.139a6.517,6.517,0,0,1,4.8,1.617c1.6,1.607,1.589,3.848,1.582,5.189-.08,17.968-.059,35.939-.038,53.908l0,3.037c.025,1.834.052,3.713-1.416,5.208a5.927,5.927,0,0,1-4.439,1.571Zm932.461,0c-4.5-.066-6.122-2.7-7.031-4.981-2.283-5.7-4.609-11.391-6.935-17.083-2.437-5.964-4.875-11.93-7.268-17.915-.894-1.392-2.045-3.177-1.315-5.221a4.543,4.543,0,0,1,3.124-2.765,10.936,10.936,0,0,1,3.306-.589,6.372,6.372,0,0,1,6.182,4.493c1.667,4.542,3.433,9.055,5.2,13.566l4.838,12.455,9.044-23.812a22.686,22.686,0,0,1,1.414-3.59,5.756,5.756,0,0,1,5.245-3.079,10.921,10.921,0,0,1,3.091.531,4.249,4.249,0,0,1,2.979,2.54,4.858,4.858,0,0,1-.808,4.41c-2.725,6.908-5.333,13.561-7.94,20.213l-6.13,15.7c-.593,1.533-1.983,5.128-6.854,5.128Zm-759.244-.012c-2.485,0-4.237-.851-5.209-2.529a7.781,7.781,0,0,1-.776-4.088l-.038-13.77c-.029-6.766-.058-13.532-.018-20.3-.268-1.944-.571-3.986.827-5.707a5.869,5.869,0,0,1,4.427-1.959c3.693-.02,5.113,1.439,5.768,2.662.042.08.083.161.121.241a16.294,16.294,0,0,1,10.427-3.784l1.469-.06a4.715,4.715,0,0,1,5.051,5.4c-.086,2.053-.257,6.275-5.945,6.511-6.808.277-9.814,3.432-10.057,10.548-.181,5.388-.146,10.789-.111,16.188l.022,3.849c.014,1.7.029,3.7-1.486,5.23a5.961,5.961,0,0,1-4.463,1.568Zm457.113,0a5.948,5.948,0,0,1-4.442-1.566,6.326,6.326,0,0,1-1.48-4.866l-.04-12.455c-.032-7.285-.065-14.571-.026-21.852-.246-1.96-.525-4.009.895-5.711a5.882,5.882,0,0,1,4.469-1.9c2.373-.012,3.849.521,4.88,1.572A4.766,4.766,0,0,1,641.98,29.5a19.442,19.442,0,0,1,9.772-4.013c11.232-1.37,19.1,4.683,20.808,15.577a100.588,100.588,0,0,1,.691,17.8c-.07,3.341-.142,6.683-.007,10.017a5.473,5.473,0,0,1-1.291,4.1c-1.393,1.5-3.3,1.57-4.7,1.618a5.946,5.946,0,0,1-4.505-1.487,6.054,6.054,0,0,1-1.47-4.4c.1-6.612.068-13.224.036-19.835-.057-11.159-3.244-12.08-7.09-12.169h-.009c-6.719,0-10.938,4.321-11.336,11.277-.3,5.251-.253,10.524-.209,15.791l.03,4.163c.007,1.6.017,3.6-1.522,5.15a6.018,6.018,0,0,1-4.5,1.571Zm-603.985,0a5.943,5.943,0,0,1-4.438-1.564,6.352,6.352,0,0,1-1.481-4.878l-.041-12.968c-.032-7.107-.064-14.216-.026-21.324-.247-1.958-.527-4,.891-5.709A5.877,5.877,0,0,1,32.062,26.3c2.389-.013,3.857.52,4.887,1.571A4.75,4.75,0,0,1,38,29.5a19.49,19.49,0,0,1,9.767-4.019,25.427,25.427,0,0,1,3.072-.192c9.561,0,16.193,5.891,17.741,15.759a100.687,100.687,0,0,1,.694,17.827c-.07,3.335-.142,6.671-.009,10a5.473,5.473,0,0,1-1.292,4.1c-1.4,1.509-3.308,1.575-4.7,1.623a5.962,5.962,0,0,1-4.5-1.49,6.049,6.049,0,0,1-1.471-4.4c.1-6.464.068-12.925.038-19.391l-.005-1.193c-.056-10.411-3.241-11.335-7.083-11.426C43.527,36.7,39.3,41.017,38.9,47.972c-.3,5.263-.256,10.546-.211,15.828l.03,4.129c.006,1.608.014,3.61-1.522,5.153a6.022,6.022,0,0,1-4.5,1.57Zm182.07-.009c-5.711-.068-5.709-4.814-5.708-6.374l-.111-35c-.075-1.916-.158-3.858,1.319-5.4a5.818,5.818,0,0,1,4.388-1.594,6.048,6.048,0,0,1,4.621,1.678,4.905,4.905,0,0,1,1.005,1.571,20,20,0,0,1,16.193-3.774c7.455,1.256,12.231,5.537,13.813,12.379,1.668,7.21,1.469,14.46,1.276,21.473-.091,3.324-.184,6.648-.074,9.961a4.782,4.782,0,0,1-1.244,3.633,4.877,4.877,0,0,1-3.651,1.345l-.155.016-1.738.023a4.954,4.954,0,0,1-3.678-1.409,5.563,5.563,0,0,1-1.43-4.156c.066-4.531.051-9.062.038-13.595l-.012-5.033,0-1.1c.005-1.069.011-2.137-.03-3.207-.283-7.44-3.028-8.861-5.674-9.27a10.6,10.6,0,0,0-12.008,7.332c-.945,2.8-.936,5.817-.927,9.014l-.022,4.376c-.032,3.493-.066,6.988.059,10.478a6.558,6.558,0,0,1-1.48,4.993,6.323,6.323,0,0,1-4.621,1.637Zm341.678-1.577c-1.588-1.592-1.58-3.869-1.576-4.964q.113-30.737,0-61.472c0-1.294-.012-3.463,1.56-5.043A6.375,6.375,0,0,1,561,0a5.834,5.834,0,0,1,4.41,1.572,6.191,6.191,0,0,1,1.414,4.793l-.013,32.81v2.209L578.035,31.15c3.225-2.941,4.842-4.416,8.806-4.416,1.3,0,2.979.165,5.4.414l6.847.708L577.3,47.233c-.669.593-1.384,1.228-1.876,1.706.495.51,1.234,1.2,1.958,1.874l23.243,21.749-5.359,1.373a19.607,19.607,0,0,1-4.886.673,13.1,13.1,0,0,1-10.439-5.053c-3.715-4.38-7.562-8.644-11.408-12.907L566.8,54.724v.959c-.007,4.144-.014,8.287.023,12.433.016,1.655.065,6.449-5.693,6.522h-.156A6.312,6.312,0,0,1,556.441,73.067Zm419.251,1.566a6.12,6.12,0,0,1-4.5-1.566,6.276,6.276,0,0,1-1.525-4.666q.134-17.882.007-35.759a6.365,6.365,0,0,1,1.544-4.793,5.869,5.869,0,0,1,4.39-1.552,6.219,6.219,0,0,1,4.527,1.6,6.273,6.273,0,0,1,1.5,4.741c-.076,4.159-.061,8.326-.046,12.493l.012,5.1-.012,5.21c-.014,4.294-.029,8.588.046,12.879a6.3,6.3,0,0,1-1.49,4.744,6.132,6.132,0,0,1-4.45,1.57Zm-365.562,0a5.437,5.437,0,0,1-6-6.247q.126-17.877.005-35.754a6.519,6.519,0,0,1,1.541-4.774A5.885,5.885,0,0,1,610.08,26.3a6.2,6.2,0,0,1,4.505,1.591,6.311,6.311,0,0,1,1.515,4.756c-.079,4.191-.065,8.384-.049,12.578l.012,5.018-.012,5.1c-.014,4.329-.03,8.659.052,12.984a6.3,6.3,0,0,1-1.5,4.733,6.172,6.172,0,0,1-4.471,1.572Zm276.89-1.8c-1.545-1.751-1.275-3.9-1.1-5.328-.068-11.911-.1-22.915-.058-33.91-.209-1.834-.448-3.793.926-5.435a5.688,5.688,0,0,1,4.251-1.851c2.574-.018,4.1.565,5.161,1.715a4.951,4.951,0,0,1,.814,1.193,16.325,16.325,0,0,1,9.707-3.76c1.066-.108,1.573-.157,2.06-.157a4.918,4.918,0,0,1,5.192,4.994,6.613,6.613,0,0,1-1.389,5.066,6.667,6.667,0,0,1-4.976,1.906c-6.176.2-9.315,3.469-9.6,9.982-.143,3.233-.135,6.468-.127,9.7.007,3.154.013,6.307-.112,9.456.343,2.182.717,4.394-.774,6.214a6.14,6.14,0,0,1-4.874,2l-.37.005A6.011,6.011,0,0,1,887.019,72.829Zm-491.4,1.733-3.7.041a5.6,5.6,0,0,1-4.217-1.433,6.133,6.133,0,0,1-1.447-4.605q.059-29.279-.018-58.551a5.883,5.883,0,0,1,1.467-4.336,5.642,5.642,0,0,1,4.169-1.461c1.852.039,3.419.049,4.988.049l6.185-.017c2.972,0,5.942.037,8.9.21,13.72.794,17.979,8.687,19.136,15.168,1.371,7.725-.357,13.1-5.907,17.483a16.882,16.882,0,0,1,8.947,14.36c.849,13.614-6.393,21.73-20.391,22.852-3.009.241-6.031.3-9.058.3Zm10.85-11.668a45.237,45.237,0,0,0,7.784-.542c4.521-.792,7.3-3.559,7.628-7.591.418-5.121-1.4-8.127-6.089-10.051-2.265-.93-4.822-1.008-7.529-1.091l-1.074-.034c-1.846-.068-3.4-.125-4.7-.125-2.787,0-3.373.3-3.486.391-.54.625-.54,4.349-.54,7.949l.006,4.3c.007,2.253.015,4.505-.021,6.754l1.626-.019Zm-3.122-31.04c1.2.041,2.364.079,3.525.079a23.029,23.029,0,0,0,7.013-.9c3.74-1.205,5.573-3.849,5.3-7.647-.287-3.99-2.318-6.258-6.211-6.934a40.16,40.16,0,0,0-6.356-.466l-2.929-.024c-2.766,0-4.363.15-4.747.445-.483.623-.483,4.116-.483,7.493v7.884c.41-.01.815-.014,1.22-.014C400.9,31.774,402.126,31.813,403.35,31.854ZM504.484,74.619c-3.794-.074-5.793-2.111-5.783-5.889q.045-18.17-.128-36.34a6.228,6.228,0,0,1,1.485-4.621,5.317,5.317,0,0,1,3.935-1.454c1.524.052,3.668.134,5.124,1.747A4.615,4.615,0,0,1,510,29.5a19.954,19.954,0,0,1,16.055-3.758c7.626,1.267,12.469,5.7,14.009,12.822,1.518,7.011,1.336,14.054,1.161,20.863-.086,3.353-.175,6.706-.056,10.049a4.853,4.853,0,0,1-1.246,3.691,5.074,5.074,0,0,1-3.867,1.362l-.176.021-1.462.048a4.983,4.983,0,0,1-3.688-1.419,6.151,6.151,0,0,1-1.479-4.564c.075-4.356.059-8.714.044-13.069l-.012-4.572,0-1.293c0-1.327.009-2.655-.051-3.974-.328-7.087-3.007-8.465-5.585-8.879a10.677,10.677,0,0,0-11.8,6.447c-1.15,2.909-1.229,6.159-1.211,9.51l-.011,5.644c-.017,3.339-.036,6.678.061,10.015a6.1,6.1,0,0,1-1.46,4.6,5.96,5.96,0,0,1-4.463,1.58Zm98.588-61.043a7,7,0,0,1,1.7-5.4,7.049,7.049,0,0,1,5.29-2.115,6.793,6.793,0,0,1,7.2,6.507c-.1,4.84-2.812,7.651-7.058,7.728l-.158,0C606.055,20.294,603.316,17.657,603.072,13.576ZM975.56,20.289c-4.061-.031-6.795-2.73-6.961-6.878a6.979,6.979,0,0,1,1.788-5.332,7.085,7.085,0,0,1,5.337-2.027c4.021.009,6.735,2.579,7.089,6.707-.239,4.809-2.993,7.529-7.179,7.529Z" transform="translate(13747.138 19546.518)" fill="#fbba54"/>
    <path id="Path_65258" data-name="Path 65258" d="M13676.257,19361.482v323.828" fill="none" stroke="#fff" stroke-width="5"/>
    <path id="Union_116" data-name="Union 116" d="M22.278,46.291a7.908,7.908,0,0,1,8.042-7.925c4.582-.027,8.514,3.593,8.527,7.847.014,4.353-3.715,7.8-8.448,7.808h-.016C25.693,54.021,22.283,50.771,22.278,46.291Zm-5.415-12.25a2.941,2.941,0,0,1,.765-3.238,16.891,16.891,0,0,1,12.651-5.856c4.893.04,9.106,1.575,12.4,5.339,1.274,1.456,1.5,3.231.41,4.577a3.345,3.345,0,0,1-4.711.734c-1.4-.9-2.487-2.181-4.2-2.732-4.16-1.337-7.8-.911-11,2.282a4.5,4.5,0,0,1-3.106,1.489A3.477,3.477,0,0,1,16.862,34.041ZM9.228,26.3c-1.431-1.627-1.32-3.1.365-4.881a28.877,28.877,0,0,1,37.736-3.38,18.558,18.558,0,0,1,3.585,2.905c.856,1.044,1.458,2.266.777,3.66a3.842,3.842,0,0,1-3.363,2.252,6.272,6.272,0,0,1-3.77-2.064c-7.194-6.572-20.635-6.78-28.513.168-.609.536-1.245,1.046-1.891,1.538a4.184,4.184,0,0,1-2.513.957A3.168,3.168,0,0,1,9.228,26.3ZM.9,17.2c-1.337-1.43-1.211-3.667.571-5.34A42.354,42.354,0,0,1,24.781.581C26.134.382,27.5.235,28.858.075A10.934,10.934,0,0,1,30.487.006a43.357,43.357,0,0,1,27.851,10.9c2.119,1.843,2.318,3.518.688,5.318s-3.243,1.76-5.375-.059A34.694,34.694,0,0,0,32.386,7.548c-10.155-.531-18.752,2.816-26.233,9.518a4.362,4.362,0,0,1-2.841,1.313A3.289,3.289,0,0,1,.9,17.2Z" transform="translate(13043.848 19360.73)" fill="#fbba54"/>
  </g>
</svg>
